<?xml version="1.0" encoding="UTF-8"?>
<svg id="Lag_2" data-name="Lag 2" xmlns="http://www.w3.org/2000/svg" width="1057.31" height="614.04" viewBox="0 0 1057.31 614.04">
  <g id="Lag_1-2" data-name="Lag 1">
    <g id="bord">
      <path d="M1056.69,298.07c3.57,88.65-69.01,184.67-134.56,238.69-158.72,129.49-355.62,66.96-532.06,16.47-86.22-25.62-175.43-50.25-259-83.13C79.51,448.74-5.3,414.03.81,347.81c3.39-29.84,20.9-55.65,39.1-78.37,33.97-41.78,80.4-79.57,126.92-109.98,47.92-31.13,97.47-56.31,150.93-74.03,152.85-50.24,320.81-21.04,472.42,22.99,63.25,18.76,129.65,40.46,186.24,75.02,41.37,24.76,77.99,63.55,80.25,114.45v.19Z" style="fill: #c7b299;"/>
      <path d="M1056.69,298.07c3.57,88.65-69.01,184.67-134.56,238.69-158.72,129.49-355.62,66.96-532.06,16.47-86.22-25.62-175.43-50.25-259-83.13C79.51,448.74-5.3,414.03.81,347.81c3.39-29.84,20.9-55.65,39.1-78.37,33.97-41.78,80.4-79.57,126.92-109.98,47.92-31.13,97.47-56.31,150.93-74.03,152.85-50.24,320.81-21.04,472.42,22.99,63.25,18.76,129.65,40.46,186.24,75.02,41.37,24.76,77.99,63.55,80.25,114.45v.19Z" style="fill: none; stroke: #000; stroke-miterlimit: 10;"/>
      <path d="M1056.69,298.07c3.57,88.65-69.01,184.67-134.56,238.69-158.72,129.49-355.62,66.96-532.06,16.47-86.22-25.62-175.43-50.25-259-83.13C79.51,448.74-5.3,414.03.81,347.81c3.39-29.84,20.9-55.65,39.1-78.37,33.97-41.78,80.4-79.57,126.92-109.98,47.92-31.13,97.47-56.31,150.93-74.03,152.85-50.24,320.81-21.04,472.42,22.99,63.25,18.76,129.65,40.46,186.24,75.02,41.37,24.76,77.99,63.55,80.25,114.45v.19Z" style="fill: #8c2717;"/>
    </g>
    <g id="vinglas1">
      <line x1="164.51" y1="340.18" x2="164.46" y2="374.85" style="fill: none; stroke: #000; stroke-miterlimit: 10;"/>
      <path d="M144.72,380.31c6.51,4.5,15.65,5.55,24.24,5.51,4.79-.02,9.81-.38,13.82-2.49s6.55-6.46,4.5-9.94c-4.22-7.17-18.54-10.71-27.54-9.18-8.39,1.43-26.76,7.97-15.01,16.09Z" style="fill: none; stroke: #000; stroke-miterlimit: 10;"/>
      <path d="M188.73,306.14c.1,7.19-1.01,14.39-3.29,21.39-1.65,5.08-4.57,10.6-11.03,12.67-5,1.6-11.02.59-15.41-1.81s-7.35-5.97-9.52-9.68c-4.54-7.76-6.04-16.5-4.25-24.86,11.83,8.71,29.99,9.55,43.49,2.29Z" style="fill: none; stroke: #000; stroke-miterlimit: 10;"/>
      <path d="M145.96,303.54c5.25-4.89,13.1-8.2,21.45-9.02,4.67-.46,9.63-.14,13.73,1.59,4.11,1.72,7.19,5.01,7.07,8.52" style="fill: none; stroke: #000; stroke-miterlimit: 10;"/>
      <path d="M147.98,321.78c4.19,1.01,8.23-1.59,12.43-2.56,8.33-1.94,18.49,2.48,25.64-1.25,0,4.44.95,8.5-2.41,13.45-2.77,4.08-6.84,7.96-12.92,8.63-6.08.67-12.48-1.38-16.29-4.97-3.52-3.32-4.82-7.61-6.02-11.74" style="fill: #c1272d; stroke: #000; stroke-miterlimit: 10;"/>
    </g>
    <g id="kaffe">
      <path d="M898.75,179.7c8.84,0,17.67-.01,26.51-.02,2.06,0,4.26.04,5.97,1.38,2.57,2.01,3.07,6.07,3.34,9.65,1.74,22.61,4.3,45.14,7.69,67.5.48,3.2.96,6.66-.28,9.57-1.24,2.92-4.97,4.57-6.94,2.25-2.33-6.9-3.77-14.19-4.26-21.57-.44-6.5-.14-13.03-.06-19.55.13-10.67-.44-21.82-5.04-31.08-.22-.45-.46-.9-.82-1.21-.5-.42-1.15-.5-1.77-.56-12.45-1.25-24.88-2.84-37.26-4.75" style="fill: #3c3c3b; stroke: #1d1d1b; stroke-miterlimit: 10;"/>
      <path d="M882.2,241.86c6.28,40.13,10.55,81.55,27.38,117.39-35.89,2.36-68.81,1.64-104.7,4,8.37-41.11,18.04-81.87,29-122.16,18.41.73,29.91.04,48.32.77Z" style="fill: #9c9b9b; stroke: #1d1d1b; stroke-miterlimit: 10;"/>
      <path d="M835.45,240.67c.2-4.63.57-9.26,1.1-13.85,13.68.27,27.2.02,40.87-.62,0,4.95,0,10.01,0,14.95" style="fill: #6f6f6e; stroke: #1d1d1b; stroke-miterlimit: 10;"/>
      <path d="M836.39,226.79h-6.63c1.58-11.96-2.04-25.16-5.97-36.38-1.08-3.08-1.89-7.36-3.49-10.12,26.5-4.06,52.63.75,79.17-2.95-2.26,7.68-5.57,14.64-9.33,21.5-1.14,2.08-2.35,4.11-3.35,6.29-2.54,5.51-3.67,11.71-4.77,17.82-.17.95-.26,2.43-.41,3.38-15.2.23-30.02.47-45.22.47Z" style="fill: #868686; stroke: #1d1d1b; stroke-miterlimit: 10;"/>
      <path d="M844.18,242.32c.34,21.78-.73,43.59-3.18,65.2-1.29,11.37-.63,22.71-2.55,33.97" style="fill: none; stroke: #1d1d1b; stroke-miterlimit: 10;"/>
      <path d="M867.92,242.32c-1.46,33.19,4.43,66.29,3.98,99.52" style="fill: none; stroke: #1d1d1b; stroke-miterlimit: 10;"/>
      <path d="M820.04,179.87c-4.6.14-9.2.54-13.77,1.21,2.59,1.79,4.9,3.63,7.49,5.41,1.14.79,2.29,1.58,3.4,2.43,2.53,1.94,4.87,4.2,7.19,6.45" style="fill: #b1b1b1; stroke: #1d1d1b; stroke-miterlimit: 10;"/>
      <path d="M899.37,177.22c-9.59-12.7-24.25-18.35-38.15-23.45-3.69,1.85-6.94,4.68-10.25,7.32-9.81,7.82-20.48,14.18-31.68,18.88,16.97-1.76,33.7-2.86,50.71-1.71,4.52.3,9.06.81,13.58.39,5.25-.49,10.66-2.76,15.8-1.43Z" style="fill: #6f6f6e; stroke: #1d1d1b; stroke-miterlimit: 10;"/>
      <path d="M854.87,145.14l12.83-.25c.2,0,.44,0,.56.19.1.14.1.34.1.52-.08,4.05-.31,8.09-.7,12.12-2.08.24-9.9,2.2-10.6-.04-.17-.55.17-1.82.14-2.45-.06-1.15-.37-2.36-.59-3.49-.13-.66-1.28-6.61-1.73-6.6Z" style="fill: #3c3c3b; stroke: #1d1d1b; stroke-miterlimit: 10;"/>
      <path d="M841.27,179.44c1.19,6.35,2.06,12.77,2.59,19.24.32,3.93.52,7.87.72,11.81.26,5.13.51,10.26.77,15.39" style="fill: none; stroke: #1d1d1b; stroke-miterlimit: 10;"/>
      <path d="M872.83,179.84c-2.22,15.65-4.18,31.35-5.88,47.09" style="fill: none; stroke: #1d1d1b; stroke-miterlimit: 10;"/>
    </g>
    <g id="blomst">
      <path d="M639.02,177.11c.43,36.28-.07,71.89-.84,108.16-3.55,4.67-9.99,5.93-15.85,6.14-12.29.46-25.19-3-36.23-8.43-.94-30.9-1.88-61.8-2.81-92.69-.2-6.64-.37-13.49,2.02-19.69,2.39-6.2,8.19-11.3,14.84-11.36.24-11.98-.93-23.99-3.48-35.69,3.14,2.8,5.51,4.74,9.67,5.38s9.12-2.1,9.16-6.31c-.64,12.68-.63,25.51.94,38.11,10.16,3.45,22.44,5.65,22.57,16.39Z" style="fill: #fff9df; stroke: #1d1d1b; stroke-miterlimit: 10;"/>
      <path d="M595.96,122.41c1.44-1.65,3.65-2.39,5.8-2.78,4.67-.84,9.96-.17,13.28,3.21" style="fill: none; stroke: #1d1d1b; stroke-miterlimit: 10;"/>
      <path d="M583.29,186.84c3.97-1.67,8.27-3.26,12.48-2.37,3.1.66,5.78,2.6,8.79,3.59,2.74.89,5.67.96,8.55,1.03,3.76.08,7.58.16,11.21-.8,4.17-1.1,8.2-3.57,12.47-2.98" style="fill: none; stroke: #d4e7ff; stroke-miterlimit: 10;"/>
      <path d="M607.46,188.81c2.26-20.41-.64-50.15-5.49-70.25-3.03-12.59-7.96-25.64-19.51-34.17-2.76-7.36-5.53-14.31-8.28-21.67-1.94-5.19-3.99-10.53-8.26-14.65" style="fill: none; stroke: #214a00; stroke-miterlimit: 10;"/>
      <path d="M618.01,77.15c-2.43,1.74-4.32,4.3-4.99,7.21s-.04,6.15,1.89,8.43c1.6-.31,3.17-1.08,4.14-2.4s1.58-2.86,2.05-4.42c.44-1.45.79-3,.42-4.48-.48-1.97-1.97-3.03-3.52-4.34Z" style="fill: #214a00; stroke: #214a00; stroke-miterlimit: 10;"/>
      <path d="M602.64,28.9c-.13,6.09-.46,12.64-5.29,17.51-2.82,2.84-6.97,4.81-11.39,5.97s-9.14,1.55-13.82,1.65c-4.42-1.29-8.18-4.03-9.06-7.57-.88-3.54.28-7.25,2.53-10.42,2.25-3.17,5.53-5.85,9.06-8.25,6.94-4.74,15.6-8.68,24.92-8.47,1.03.02,2.16.13,2.88.7.57.46.75,1.11.87,1.74.6,3.23.13,6.58-1.37,9.64" style="fill: #214a00; stroke: #214a00; stroke-miterlimit: 10;"/>
      <path d="M563.35,52.37c0-.92.39-2.51-.08-3.35-.37-.68-1.76-1.38-2.41-1.9-1.98-1.58-3.92-3.2-5.81-4.85-1.48-1.29-2.97-2.64-3.74-4.28-.71-1.5-.78-3.15-.76-4.76.18-11.69,5.03-23.3,13.64-32.68,6.46,1.15,11.89,4.96,15.25,9.57,3.35,4.62,4.82,9.99,5.38,15.32,1.19,11.17-9.36,21.81-21.29,27.52" style="fill: #214a00; stroke: #214a00; stroke-miterlimit: 10;"/>
      <path d="M562.34,46.88c-3.99-.47-8.21-.9-11.86.71-2.32,1.03-4.18,2.79-6.11,4.39-5.66,4.67-12.88,8.28-20.28,7.45,2.13.56,3.66,2.37,4.74,4.23s1.9,3.9,3.36,5.5c3.22,3.54,8.64,4.1,13.52,4.28,3.8.14,7.73.18,11.25-1.22,6.74-2.67,10.34-10.07,10.75-17.09.12-1.98-.09-4.23-1.69-5.47" style="fill: #214a00; stroke: #214a00; stroke-miterlimit: 10;"/>
      <path d="M611.19,124.21c.49-2.75,4.43-4.23,6.6-6.47,1.95-2.01,4.88-4.4,7.18-6.19,6.27-4.88,7.56-6.68,14.35-12.33,3.4-2.83,8.25-7.66,8.25-7.66,5.76-3.64,8.12-6.91,12.1-11.86-10.48.1-20.09-4.47-27.52-10.07-4.63-3.49-9.13-7.21-12.02-11.65s-4.03-9.74-1.75-14.38c5.16-.88,10.62,1.02,15.17,3.06,7.66,3.44,14.64,7.85,19.84,13.32,5.2,5.47,8.54,12.04,8.76,18.77,1.25-7.91-4.53-15.43-6.34-23.28-2.19-9.48,1.76-19.66,10.38-26.74,3.08,1.49,4.88,3.65,6.43,6.16,4.15,6.71,6.16,14.31,4.62,21.63-1.54,7.32-6.83,14.3-15.03,18.36,8.1-5.35,15.02-10.98,22.92-16.49s17.76-10.1,28.51-10.18c2.68,10.24-3.73,21.02-14.57,27.49-10.84,6.47-25.43,8.73-39.14,7.45" style="fill: #214a00; stroke: #214a00; stroke-miterlimit: 10;"/>
      <path d="M662.51,77.9c-5.86,3.76-7.55,10.32-5.81,15.98,1.74,5.66,6.37,10.57,11.45,14.93,4.88,4.18,10.27,8.02,16.08,11.45,4.38-8.46,5.15-17.08.37-25.41-3.66-6.38-9.73-11.76-15.83-16.97-2.32-1.98-2.91.77-6.27.02Z" style="fill: #214a00; stroke: #214a00; stroke-miterlimit: 10;"/>
      <path d="M615.81,189.13c-1.93-11.2-.34-1.43-2.26-12.63-1.46-8.53-2.92-17.07-3.73-25.69-.65-6.88-.87-13.8-.89-20.71-.02-11.67.62-23.56,4.73-34.48.79-2.09.14-3.71-.64-5.81s-1.87-4.07-2.68-6.15c-1.7-4.37-2.2-9.28-4.83-13.17" style="fill: none; stroke: #214a00; stroke-miterlimit: 10;"/>
      <path d="M604.58,69.01c-2.75-1.28-3.78-4.68-3.9-7.71-.32-7.93,3.76-15.91,10.4-20.27,3.53,4.76,4.08,10.98,2.73,16.74s-4.49,10.96-8,15.73" style="fill: #214a00; stroke: #214a00; stroke-miterlimit: 10;"/>
      <path d="M607.57,72.85c-3.09.86-6.33,1.45-9.5.98-2.57-.38-5-1.45-7.28-2.7-3.37-1.85-6.68-4.38-7.87-8.03,6.85-2.23,14.61-.63,20.05,4.09" style="fill: #214a00; stroke: #214a00; stroke-miterlimit: 10;"/>
      <path d="M589.44,284.07c-.41,1.08-.54,2.33-.07,3.38s1.65,1.84,2.78,1.6,1.9-1.7,1.27-2.67c.55,1.43,1.27,3.03,2.73,3.51s3.3-1.41,2.23-2.51c1.03,1.16,2.06,2.32,3.09,3.48.23.26.48.53.81.61.61.15,1.2-.41,1.33-1.02s-.09-1.24-.3-1.83c1.24,1.28,2.76,2.3,4.42,2.96,0-.8.19-1.59.53-2.31,1.53,1.54,3.26,2.88,5.14,3.96.39-.93.38-2.03-.03-2.95.5.99,1.69,1.72,2.73,1.34s1.3-2.15.28-2.57c1.45,1.73,3.26,3.16,5.28,4.18.08-1.18-.1-2.37-.53-3.47,1.29.58,2.58,1.17,3.87,1.75.63-1,.88-2.24.7-3.41.91.78,2,1.37,3.15,1.71.36-.66.51-1.44.41-2.2,1.37.63,2.74,1.26,4.11,1.88.54-1.31.35-2.88-.48-4.03.84.51,1.68,1.02,2.52,1.53l.1-2.54c.88-.04,1.77.11,2.59.45" style="fill: none; stroke: #214a00; stroke-miterlimit: 10;"/>
      <path d="M611.83,123.1c-1.87.42-3.28,2.07-3.9,3.88s-.55,3.79-.35,5.69c.4,3.78,1.31,7.5,2.7,11.03.96,2.43,2.14,4.78,2.75,7.31.73,3.03.59,6.19.45,9.31-.71,15.88-.57,12.6-1.28,28.48" style="fill: none; stroke: #214a00; stroke-miterlimit: 10;"/>
    </g>
    <g id="tallerken2">
      <path d="M430.34,400.46c-16.72,12.28-27.97,31.73-30.3,52.34-.78,6.92-.58,14.07,1.65,20.67,2.55,7.59,7.59,14.04,12.55,20.32,2.27,2.88,4.59,5.81,7.6,7.9,3.59,2.48,7.92,3.61,12.15,4.66,21.11,5.25,42.78,9.84,64.46,8.01,16.75-1.41,34.4-7.61,43.61-21.68,5.16-7.88,7.15-17.44,7.8-26.83,1.35-19.53-2.97-39.87-14.53-55.67-23.57-32.22-74.49-32.14-104.99-9.73Z" style="fill: #fffbf4; stroke: #c1272d; stroke-miterlimit: 10;"/>
      <path d="M429.57,445.08c-1.88,5.75-3.3,11.78-2.71,17.8,1.2,12.35,10.85,22.65,22.13,27.84,11.28,5.18,24.01,6.09,36.42,6.28,7.96.12,16.21-.08,23.44-3.41,9.94-4.58,16.6-14.73,18.79-25.45s.38-21.93-3.16-32.28c-2.44-7.16-5.83-14.2-11.31-19.41-10.5-9.97-33.12-14.69-47.21-10.79-18.45,5.11-30.74,22.12-36.4,39.42Z" style="fill: #fffbf4; stroke: #c1272d; stroke-miterlimit: 10;"/>
      <path d="M422.24,427.21c1.42-2.91,3.4-5.55,5.8-7.73" style="fill: none; stroke: #c1272d; stroke-miterlimit: 10;"/>
      <path d="M427.84,419.32c-.77-.3-1.39-.99-1.6-1.79.43-.18.98.07,1.13.51l.49-.81c.23.27.33.65.25.99.26-.33.66-.55,1.08-.6.19-.02.44.07.41.26,0,.05-.04.09-.07.14-.12.16-.26.3-.42.43.39-.08.81-.06,1.2.04.07.02.16.06.16.13,0,.05-.03.09-.07.12-.28.26-.67.4-1.06.37.47.18.92.43,1.33.72-.24.1-.5.16-.76.17l.73.94c-.8.19-1.71-.25-2.06-1" style="fill: none; stroke: #c1272d; stroke-miterlimit: 10;"/>
      <path d="M423.73,424.49c-.39-.36-.78-.71-1.11-1.13s-.6-.88-.71-1.4c-.01-.05-.02-.12.03-.15.03-.03.08-.02.12,0,1.04.24,1.91,1.12,2.13,2.16.53-.19,1.29-.41,1.85-.43s1.16.14,1.53.56c-1.06.79-2.48,1.1-3.77.82" style="fill: none; stroke: #c1272d; stroke-miterlimit: 10;"/>
      <path d="M447.5,403.98c2.39-2.19,5.2-3.92,8.23-5.06" style="fill: none; stroke: #c1272d; stroke-miterlimit: 10;"/>
      <path d="M455.6,398.68c-.61-.56-.93-1.43-.83-2.25.46-.01.89.42.87.89l.76-.58c.12.33.07.72-.13,1.02.36-.22.82-.27,1.22-.16.18.05.39.23.29.39-.03.04-.07.07-.12.1-.17.1-.36.18-.55.25.4.07.77.24,1.1.48.06.04.12.11.1.18-.02.04-.06.07-.11.08-.36.14-.77.13-1.12-.04.37.34.7.73.97,1.16-.26,0-.52-.03-.77-.12l.34,1.14c-.82-.12-1.5-.86-1.55-1.68" style="fill: none; stroke: #c1272d; stroke-miterlimit: 10;"/>
      <path d="M449.88,401.99c-.23-.47-.47-.95-.62-1.46s-.23-1.04-.15-1.56c0-.05.03-.12.08-.13.04-.01.08.01.12.04.88.6,1.36,1.74,1.19,2.79.56.02,1.35.09,1.88.28s1.03.55,1.22,1.08c-1.28.35-2.71.12-3.81-.62" style="fill: none; stroke: #c1272d; stroke-miterlimit: 10;"/>
      <path d="M480.75,393.68c3.18-.62,6.48-.62,9.66,0" style="fill: #e6e6e6; stroke: #c1272d; stroke-miterlimit: 10;"/>
      <path d="M490.42,393.41c-.22-.8-.04-1.7.47-2.35.4.23.54.83.28,1.21l.95-.1c-.08.35-.32.65-.64.8.42,0,.84.19,1.13.51.13.14.21.4.04.48-.05.02-.1.02-.15.02-.2,0-.4-.03-.59-.07.3.27.54.61.68.98.03.07.05.16-.01.21-.04.03-.09.02-.13.02-.38-.07-.72-.3-.93-.62.14.49.21.99.22,1.5-.23-.13-.43-.3-.59-.51l-.31,1.15c-.63-.53-.82-1.52-.44-2.24" style="fill: #e6e6e6; stroke: #c1272d; stroke-miterlimit: 10;"/>
      <path d="M483.81,393.23c.05-.53.1-1.05.23-1.57s.35-1.01.69-1.41c.04-.04.08-.08.14-.07.04.01.06.05.08.09.43.98.25,2.19-.44,3,.47.31,1.1.78,1.46,1.22s.59,1.01.47,1.56c-1.27-.37-2.37-1.32-2.92-2.52" style="fill: #e6e6e6; stroke: #c1272d; stroke-miterlimit: 10;"/>
      <path d="M513.94,402.1c2.62,1.9,4.88,4.31,6.6,7.05" style="fill: #e6e6e6; stroke: #c1272d; stroke-miterlimit: 10;"/>
      <path d="M520.75,408.98c.43-.71,1.21-1.19,2.04-1.26.11.45-.24.96-.69,1.03l.72.63c-.31.18-.69.21-1.02.07.28.31.43.75.4,1.17-.01.19-.15.42-.33.36-.05-.02-.09-.06-.12-.1-.13-.15-.25-.31-.35-.49,0,.4-.08.81-.25,1.17-.03.07-.09.14-.16.13-.05,0-.08-.05-.1-.09-.21-.32-.28-.73-.18-1.11-.26.43-.58.83-.94,1.18-.06-.25-.07-.52-.03-.78l-1.05.56c-.05-.82.55-1.64,1.34-1.85" style="fill: #e6e6e6; stroke: #c1272d; stroke-miterlimit: 10;"/>
      <path d="M516.36,404.04c.42-.32.84-.65,1.3-.9s.97-.44,1.5-.46c.05,0,.12,0,.14.05.02.04,0,.08-.01.12-.42.98-1.43,1.68-2.5,1.73.09.55.18,1.34.1,1.9s-.34,1.12-.82,1.41c-.6-1.19-.65-2.63-.15-3.86" style="fill: #e6e6e6; stroke: #c1272d; stroke-miterlimit: 10;"/>
      <path d="M531.17,425.45c2.14,2.43,3.82,5.27,4.9,8.33" style="fill: none; stroke: #c1272d; stroke-miterlimit: 10;"/>
      <path d="M536.3,433.66c.58-.6,1.45-.9,2.27-.78,0,.46-.44.88-.9.85l.56.77c-.34.11-.72.05-1.01-.15.21.37.26.82.13,1.23-.06.18-.24.38-.4.28-.04-.03-.07-.07-.1-.12-.1-.17-.18-.36-.24-.55-.08.39-.25.77-.5,1.09-.05.06-.12.12-.18.09-.04-.02-.07-.06-.08-.11-.13-.36-.11-.78.06-1.12-.35.36-.75.68-1.18.95,0-.26.04-.52.14-.77l-1.15.31c.14-.81.89-1.48,1.71-1.51" style="fill: none; stroke: #c1272d; stroke-miterlimit: 10;"/>
      <path d="M533.1,427.87c.48-.22.96-.45,1.47-.59s1.05-.21,1.57-.12c.05,0,.12.03.13.08.01.04-.01.08-.04.12-.62.87-1.76,1.33-2.81,1.14-.03.56-.12,1.34-.31,1.87s-.57,1.02-1.11,1.2c-.32-1.29-.06-2.71.7-3.8" style="fill: none; stroke: #c1272d; stroke-miterlimit: 10;"/>
      <path d="M539.21,457.29c.29,3.23-.05,6.51-.99,9.61" style="fill: none; stroke: #c1272d; stroke-miterlimit: 10;"/>
      <path d="M538.48,466.94c.82-.14,1.7.13,2.29.71-.27.38-.88.45-1.23.15v.95c-.34-.11-.62-.39-.73-.72-.05.42-.28.82-.62,1.07-.15.11-.42.17-.48-.01-.02-.05-.01-.1,0-.15.02-.2.07-.39.14-.58-.3.27-.66.47-1.05.58-.07.02-.17.03-.2-.03-.02-.04-.01-.09,0-.14.11-.37.37-.69.71-.86-.5.09-1.01.11-1.51.07.15-.21.34-.4.57-.54l-1.11-.43c.59-.57,1.59-.66,2.28-.2" style="fill: none; stroke: #c1272d; stroke-miterlimit: 10;"/>
      <path d="M539.33,460.39c.52.1,1.04.21,1.53.39s.97.45,1.33.83c.04.04.08.09.06.14-.02.04-.06.06-.1.07-1.01.33-2.21.03-2.94-.75-.36.43-.89,1.01-1.36,1.32s-1.06.48-1.6.31c.5-1.23,1.56-2.22,2.81-2.65" style="fill: none; stroke: #c1272d; stroke-miterlimit: 10;"/>
      <path d="M533.33,489.65c-1.75,2.73-4.02,5.12-6.66,7" style="fill: none; stroke: #c1272d; stroke-miterlimit: 10;"/>
      <path d="M526.85,496.84c.73.39,1.26,1.14,1.38,1.97-.45.13-.97-.18-1.07-.63l-.58.75c-.2-.29-.25-.68-.13-1.02-.3.3-.72.47-1.14.46-.19,0-.43-.12-.38-.3.01-.05.05-.09.09-.13.14-.14.3-.27.46-.38-.4.03-.81-.03-1.18-.18-.07-.03-.15-.08-.14-.15,0-.05.04-.08.08-.11.31-.23.72-.32,1.09-.25-.45-.24-.86-.53-1.24-.87.25-.08.52-.1.78-.08l-.62-1.02c.82-.09,1.67.45,1.92,1.23" style="fill: #e6e6e6; stroke: #c1272d; stroke-miterlimit: 10;"/>
      <path d="M531.53,492.18c.35.4.69.8.97,1.25s.49.95.54,1.47c0,.05,0,.12-.04.15-.04.02-.08,0-.12,0-1.01-.36-1.76-1.33-1.87-2.39-.55.13-1.33.25-1.89.21s-1.14-.27-1.46-.73c1.15-.66,2.59-.8,3.85-.38" style="fill: none; stroke: #c1272d; stroke-miterlimit: 10;"/>
      <path d="M505.21,503.01c-2.79,1.65-5.9,2.75-9.1,3.24" style="fill: #e6e6e6; stroke: #c1272d; stroke-miterlimit: 10;"/>
      <path d="M496.18,506.5c.48.68.61,1.59.34,2.38-.46-.08-.78-.6-.67-1.05l-.86.41c-.04-.35.09-.72.34-.97-.4.13-.86.1-1.23-.1-.17-.09-.33-.31-.2-.44.04-.04.09-.06.14-.07.19-.06.39-.11.59-.13-.37-.15-.71-.39-.97-.7-.05-.06-.1-.14-.06-.2.03-.04.08-.05.12-.06.38-.06.78.04,1.09.27-.29-.41-.53-.86-.71-1.34.26.05.51.14.73.28l-.09-1.19c.77.29,1.28,1.15,1.16,1.97" style="fill: #e6e6e6; stroke: #c1272d; stroke-miterlimit: 10;"/>
      <path d="M502.47,504.46c.13.51.26,1.03.3,1.55s.01,1.07-.18,1.56c-.02.05-.05.11-.11.11-.04,0-.08-.03-.11-.06-.73-.77-.97-1.98-.59-2.98-.55-.14-1.3-.37-1.78-.66s-.89-.76-.97-1.31c1.33-.07,2.67.45,3.6,1.4" style="fill: #e6e6e6; stroke: #c1272d; stroke-miterlimit: 10;"/>
      <path d="M467.49,504.64c-3.24.02-6.48-.58-9.5-1.77" style="fill: none; stroke: #c1272d; stroke-miterlimit: 10;"/>
      <path d="M457.93,503.12c.07.83-.27,1.68-.9,2.22-.35-.3-.38-.91-.05-1.24l-.95-.08c.14-.33.44-.58.78-.67-.41-.08-.79-.35-1.01-.71-.1-.16-.13-.43.05-.48.05-.01.1,0,.15,0,.2.04.39.1.57.18-.24-.32-.41-.7-.49-1.09-.01-.07-.02-.17.05-.2.04-.02.09,0,.13,0,.36.14.66.43.8.78-.04-.5-.02-1.01.06-1.51.2.17.37.38.49.61l.52-1.07c.52.64.53,1.64.01,2.29" style="fill: none; stroke: #c1272d; stroke-miterlimit: 10;"/>
      <path d="M464.4,504.51c-.15.51-.29,1.02-.52,1.5s-.53.93-.94,1.26c-.04.03-.1.07-.15.04-.04-.02-.05-.07-.06-.11-.25-1.04.16-2.2.99-2.87-.4-.39-.94-.97-1.21-1.47s-.39-1.1-.18-1.62c1.18.6,2.08,1.73,2.41,3.02" style="fill: none; stroke: #c1272d; stroke-miterlimit: 10;"/>
      <path d="M436.03,495.29c-3.12-.86-6.08-2.33-8.65-4.3" style="fill: none; stroke: #c1272d; stroke-miterlimit: 10;"/>
      <path d="M427.25,491.23c-.16.82-.72,1.54-1.47,1.9-.26-.39-.11-.98.29-1.21l-.89-.34c.22-.28.58-.44.93-.43-.38-.19-.67-.55-.78-.96-.05-.18,0-.45.18-.45.05,0,.1.02.15.05.18.09.35.2.5.33-.15-.37-.21-.78-.18-1.18,0-.07.03-.17.1-.18.05,0,.09.02.13.05.31.23.52.59.56.97.09-.5.25-.98.47-1.44.15.22.25.46.3.72l.79-.89c.33.76.06,1.72-.61,2.2" style="fill: none; stroke: #c1272d; stroke-miterlimit: 10;"/>
      <path d="M433.09,494.32c-.28.45-.56.9-.91,1.3s-.76.75-1.25.95c-.05.02-.11.04-.15,0-.03-.03-.03-.08-.03-.12.05-1.07.75-2.08,1.73-2.49-.28-.49-.63-1.19-.76-1.74s-.07-1.17.27-1.61c.97.9,1.53,2.24,1.49,3.56" style="fill: none; stroke: #c1272d; stroke-miterlimit: 10;"/>
      <path d="M416.35,477.94c-1.54-2.85-2.52-6-2.88-9.22" style="fill: none; stroke: #c1272d; stroke-miterlimit: 10;"/>
      <path d="M413.21,468.79c-.7.45-1.61.55-2.39.25.1-.45.63-.76,1.07-.63l-.37-.88c.35-.03.72.11.95.38-.12-.41-.06-.86.15-1.23.09-.16.32-.32.45-.18.04.04.05.09.07.14.06.19.09.39.11.59.17-.37.42-.69.73-.95.06-.05.14-.09.2-.05.04.03.05.08.05.12.05.38-.07.78-.32,1.07.42-.28.88-.5,1.36-.66-.06.26-.16.5-.31.72l1.19-.04c-.32.76-1.2,1.24-2.01,1.08" style="fill: none; stroke: #c1272d; stroke-miterlimit: 10;"/>
      <path d="M415.02,475.14c-.52.11-1.04.22-1.56.24s-1.07-.03-1.55-.24c-.05-.02-.11-.06-.11-.11,0-.04.03-.08.06-.11.8-.7,2.02-.9,3-.47.16-.54.42-1.28.73-1.75s.79-.86,1.35-.92c.02,1.33-.55,2.65-1.54,3.54" style="fill: none; stroke: #c1272d; stroke-miterlimit: 10;"/>
      <path d="M411.36,450.66c.77-3.15,2.15-6.15,4.03-8.78" style="fill: none; stroke: #c1272d; stroke-miterlimit: 10;"/>
      <path d="M415.16,441.76c-.82-.13-1.56-.67-1.94-1.41.38-.27.98-.14,1.22.25l.31-.9c.28.21.46.56.46.92.18-.38.53-.68.93-.81.18-.06.45-.02.46.17,0,.05-.02.1-.04.15-.09.18-.19.35-.32.51.37-.16.78-.23,1.18-.21.07,0,.17.03.18.1.01.05-.02.09-.04.13-.22.32-.57.53-.95.59.5.08.99.22,1.45.43-.21.15-.45.26-.71.33l.91.76c-.74.35-1.72.11-2.22-.54" style="fill: none; stroke: #c1272d; stroke-miterlimit: 10;"/>
      <path d="M412.24,447.69c-.46-.27-.91-.53-1.32-.87s-.77-.74-.99-1.22c-.02-.05-.04-.11,0-.15.03-.03.08-.04.12-.04,1.07.01,2.1.69,2.54,1.66.48-.3,1.17-.67,1.72-.81s1.16-.11,1.62.22c-.87,1-2.19,1.6-3.52,1.6" style="fill: none; stroke: #c1272d; stroke-miterlimit: 10;"/>
    </g>
    <g id="stearin1">
      <path d="M461.5,139.83c-.11-1.66-.08-3.42,1.35-4.22,1.94-1.08,8.77-3.5,8.78,1.71,0,1.05-.24,1.83-.1,2.89.15,1.23.35,2.47.53,3.7.35,2.47.71,4.93,1.06,7.4.31,2.2.64,4.43,1.57,6.44s2.15,3.42,4.3,3.73c4.22.61,8.5-.3,12.71.35,4.21.65,8.68,3.39,10.28,8.77.78,2.62.79,5.54.77,8.37-.12,18.49-.76,36.97-1.92,55.4-.4,6.38.12,13.22-.09,19.62-3.47-1.38-6.55-3.39-10.13-4-14.08-2.38-28.28,7.52-42.24,4.08-5.29-1.31-10.01,1.14-15.39,1.36-.17,0-.37,0-.49-.17-.13-.19-.11-.48-.09-.74.1-.96-.14-1.16-.14-2.14,0-12.67.42-24.92.49-37.59.05-10.34.11-20.69.16-31.03.02-3.81.04-7.67.76-11.35.71-3.68,2.21-7.23,4.57-9.22,4.35-3.67,8.81-4.27,13.83-3.02,2.02.5,4.15-.47,5.73-2.26s2.63-4.36,3.2-7.07c.63-2.97.69-6.03.64-9.06,0-.57-.08-1.24-.13-1.93Z" style="fill: #e5b842; opacity: .63; stroke: #000; stroke-miterlimit: 10;"/>
      <path d="M472.75,138.45c-.43.9-.9,1.85-1.74,2.38-.45.28-.96.42-1.48.51-1.11.2-2.24.22-3.36.23-1.09.01-2.19.02-3.24-.25s-2.06-.88-2.6-1.83" style="fill: none; opacity: .63; stroke: #000; stroke-miterlimit: 10;"/>
      <path d="M465.1,75.59c-1.39,21.33-3.05,42.11-3.48,63.48,3.37,0,6.84-1.56,10.21-1.56.62-20.65,1.24-41.29,1.86-61.94-2.86,1.87-5.23.61-8.58.02Z" style="fill: #fffaf1; stroke: #000; stroke-miterlimit: 10; stroke-width: .25px;"/>
      <path d="M465.11,75.4c.13-.52.71-.9,1.39-1.03.27-.05.55-.05.83-.04.71.02,1.41.08,2.12.14.76.07,1.52.13,2.28.2.38.03.75.07,1.11.17s.86.16.84.42c-.07.1-.12.3-.23.37-.58.4-1.26.61-1.94.79-.18.05-.36.09-.55.12-.47.07-.95.03-1.43-.02-.16-.02-.32-.03-.48-.06-.13-.03-.27-.07-.4-.1-.33-.08-.66-.13-.99-.19-.21-.03-.41-.07-.62-.13-.04-.01-.08-.02-.12-.03-.14-.04-.29-.07-.43-.11-.4-.1-.66-.18-1.06-.28-.07-.02-.43-.17-.33-.23Z" style="fill: #fffaf1; stroke: #000; stroke-miterlimit: 10; stroke-width: .25px;"/>
      <path d="M470.41,73.13c.47.04.96-.13,1.31-.45s.56-.8.56-1.28c0-.6-.3-1.15-.63-1.64-.43-.64-.95-1.23-1.52-1.75-.42-.38-.75-.58-1.31-.65-.06,0-.14,0-.19.03-.05.04-.07.1-.08.16-.11.54-.13,1.1-.31,1.62-.18.52-.5.97-.67,1.49s-.13,1.17.3,1.5c.44.33,1.08.18,1.6.36" style="fill: none; stroke: #ffe69a; stroke-miterlimit: 10;"/>
      <path d="M469.52,75.66c.32-1.66.5-3.36.51-5.06" style="fill: none; stroke: #000; stroke-miterlimit: 10; stroke-width: .75px;"/>
    </g>
    <g id="stearin2">
      <path d="M394.83,92.84c.47.04.96-.13,1.31-.45s.56-.8.56-1.28c0-.6-.3-1.15-.63-1.64-.43-.64-.95-1.23-1.52-1.75-.42-.38-.75-.58-1.31-.65-.06,0-.14,0-.19.03-.05.04-.07.1-.08.16-.11.54-.13,1.1-.31,1.62-.18.52-.5.97-.67,1.49s-.13,1.17.3,1.5c.44.33,1.08.18,1.6.36" style="fill: none; stroke: #ffe69a; stroke-miterlimit: 10;"/>
      <path d="M366.49,197.34c.31-5,.62-10.02,2.52-14.94,1.25-3.24,3.32-6.54,7.99-9,1.82-.96,4.02-1.78,5.48-2.87,1.66-1.24,2.23-2.72,2.7-4.16,1.04-3.19,1.65-6.4,1.99-9.63.04,0,.08,0,.11,0,.18.18.5.34.88.44.75.19,1.65.18,2.5.14,2.06-.09,4.09-.33,6-.7.01.07.03.14.05.21-2.33,4.72-1.04,9.81,3.66,14.12,2.35,2.15,5.49,4.1,7.68,6.29,3.25,3.25,4.27,6.88,4.83,10.45,2.22,14.27-2.28,28.55-6.76,42.7-9.92-1.09-19.41-1.44-29.59-1.25-4.04.07-8.02.2-12.03.44l1.99-32.26Z" style="fill: #42210b; opacity: .77; stroke: #000; stroke-miterlimit: 10; stroke-width: .5px;"/>
      <path d="M386.63,156.55c-.01-.32.11-.65.5-.93.74-.52,2.19-.7,3.47-.75,1.42-.06,2.86-.03,4.17.17.67.11,1.3.26,1.84.46.02.35.07.7.16,1.04-1.66.46-3.54.71-5.4.95-.59.08-1.18.15-1.78.19-1.12.06-2.38-.08-2.79-.55-.15-.18-.16-.38-.17-.57Z" style="fill: #42210b; opacity: .77; stroke: #000; stroke-miterlimit: 10; stroke-width: .5px;"/>
      <path d="M390.08,95.3c-1.32,20.85-2.88,41.16-3.29,62.04,3.18,0,6.47-1.53,9.66-1.53.59-20.18,1.17-40.36,1.76-60.53-2.7,1.83-4.94.6-8.12.02Z" style="fill: #fffaf1; stroke: #000; stroke-miterlimit: 10; stroke-width: .25px;"/>
      <path d="M389.63,95.11c.13-.52.71-.9,1.39-1.03.27-.05.55-.05.83-.04.71.02,1.41.08,2.12.14.76.07,1.52.13,2.28.2.38.03.75.07,1.11.17s.86.16.84.42c-.07.1-.12.3-.23.37-.58.4-1.26.61-1.94.79-.18.05-.36.09-.55.12-.47.07-.95.03-1.43-.02-.16-.02-.32-.03-.48-.06-.13-.03-.27-.07-.4-.1-.33-.08-.66-.13-.99-.19-.21-.03-.41-.07-.62-.13-.04-.01-.08-.02-.12-.03-.14-.04-.29-.07-.43-.11-.4-.1-.66-.18-1.06-.28-.07-.02-.43-.17-.33-.23Z" style="fill: #fffaf1; stroke: #000; stroke-miterlimit: 10; stroke-width: .25px;"/>
      <path d="M394.04,95.37c.32-1.66.5-3.36.51-5.06" style="fill: none; stroke: #000; stroke-miterlimit: 10; stroke-width: .75px;"/>
    </g>
    <g id="tallerken1">
      <path d="M188.66,158.55c-10.82,9.07-18.11,23.44-19.62,38.67-.51,5.12-.37,10.39,1.07,15.27,1.65,5.6,4.92,10.37,8.12,15.01,1.47,2.13,2.97,4.29,4.92,5.83,2.32,1.83,5.13,2.67,7.87,3.44,13.67,3.88,27.7,7.27,41.74,5.92,10.85-1.04,22.27-5.62,28.24-16.01,3.34-5.82,4.63-12.88,5.05-19.82.87-14.43-1.93-29.45-9.41-41.12-15.26-23.8-48.24-23.74-67.98-7.19Z" style="fill: #fffbf4; stroke: #2e3192; stroke-miterlimit: 10;"/>
      <path d="M188.16,191.51c-1.22,4.24-2.13,8.7-1.76,13.15.78,9.13,7.03,16.73,14.33,20.56,7.3,3.83,15.55,4.5,23.59,4.64,5.16.09,10.49-.06,15.18-2.52,6.43-3.38,10.75-10.88,12.17-18.8s.25-16.2-2.04-23.85c-1.58-5.29-3.77-10.49-7.32-14.34-6.8-7.36-21.45-10.85-30.57-7.97-11.95,3.77-19.9,16.34-23.57,29.12Z" style="fill: #fffbf4; stroke: #2e3192; stroke-miterlimit: 10;"/>
    </g>
    <path id="gaffel" d="M559.27,409.57c.02.32.03.65.02.97-.02,1.44-.1,2.88-.12,4.32-.02,1.44-.05,2.9.13,4.3.36,2.96,1.52,5.29,2.57,7.58.25.55.51,1.13.63,1.83.11.62.1,1.3.08,1.95l-.33,17.83c-.22,11.79-.17,23.95-.2,35.75,0,2.72.12,5.92,1.32,7.39.15.18.33.33.5.27.18-.07.31-.35.43-.62,1.36-3.35,1.15-7.42,1.17-11.65.04-12.5-.23-25.18.1-37.67.1-3.77.3-7.53.59-11.26.1-1.29.24-2.65.7-3.62.65-1.36,1.81-1.65,2.32-3.22.26-.79.29-1.75.31-2.68.09-3.54-.14-7.08-.25-10.62-.02-.63.17-1.19.18-1.82,0-.9,0-1.79-.01-2.69,0-1.79-.02-3.58-.03-5.37,0-.86,0-1.72-.01-2.58,0-.63-.01-1.28-.27-1.85-.03-.06-.06-.13-.13-.16-.08-.04-.17-.02-.25.02-.38.19-.45.68-.48,1.1-.15,2.61-.16,5.22-.04,7.83.05,1.02.11,2.09-.3,3.03-.04.1-.1.2-.2.23-.19.07-.35-.15-.42-.33-.23-.62-.23-1.29-.24-1.95-.02-2.26-.11-4.51-.27-6.76-.06-.85-.13-1.71-.37-2.53-.08-.27-.27-.6-.55-.55-.29.05-.34.43-.33.72.08,2.48.17,4.97.39,7.45.09,1.04.21,2.1-.08,3.11-.06.21-.19.45-.41.45-.22,0-.33-.26-.39-.46-.69-2.34-1.04-4.78-1.03-7.21,0-.99.06-1.99-.07-2.98-.03-.21-.06-.42-.19-.59s-.35-.28-.54-.2c-.21.09-.29.35-.32.58-.09.59-.1,1.18-.1,1.77-.03,2.21-.06,4.41-.09,6.62,0,.63-.02,1.27.06,1.9.03.21.06.44-.08.6-.13.16-.39.17-.57.07s-.31-.27-.41-.45c-.32-.56-.48-1.19-.58-1.82-.38-2.21-.22-4.48-.22-6.73,0-.64-.01-1.28-.15-1.9-.06-.29-.29-.65-.57-.55-.11.04-.18.14-.24.24-.48.79-.69,1.72-.8,2.64-.33,2.73.12,5.46.05,8.2-.02.71.04,1.4.08,2.09Z" style="fill: #b3b3b3; stroke: #b3b3b3; stroke-miterlimit: 10; stroke-width: .5px;"/>
    <path id="kniv" d="M573.58,421.16c.7,3.19,1.75,6.21,2.6,9.33,4.92,17.94,3.32,37.88,4.29,57.04.08,1.55.41,3.48,1.5,3.76,1.5.38,2.08-2.62,2.02-4.74-.34-10.87-.67-21.73-1.01-32.6-.1-3.19-.2-6.39-.63-9.52-.52-3.82-1.52-7.47-2.18-11.24-1.17-6.72-1.24-13.67-1.15-20.54.05-3.6.15-7.2.16-10.8,0-1.7.6-9.7-.38-10.67-2.54-2.5-5.01,9.54-5.35,11.21-1.23,6.1-1.23,12.71.11,18.77Z" style="fill: #b3b3b3; stroke: #b3b3b3; stroke-miterlimit: 10; stroke-width: .5px;"/>
    <g id="vinglas2">
      <line x1="168.77" y1="423.12" x2="202.92" y2="417.15" style="fill: none; stroke: #000; stroke-miterlimit: 10;"/>
      <path d="M211.73,435.63c3.3-7.19,2.74-16.38,1.22-24.82-.85-4.71-2.08-9.59-4.85-13.17s-7.5-5.33-10.57-2.71c-6.33,5.4-7.33,20.12-4.25,28.72,2.86,8.01,12.5,24.97,18.45,11.99Z" style="fill: none; stroke: #000; stroke-miterlimit: 10;"/>
      <path d="M135.9,447.75c-5.73-4.32-10.35-11.48-12.61-19.56-1.27-4.52-1.81-9.46-.82-13.8s3.69-7.95,7.16-8.44" style="fill: none; stroke: #000; stroke-miterlimit: 10;"/>
      <path d="M144.98,439.36c4.04-3.18,8.49-4.63,12.77-5.93,1.43-.43,2.88-.87,4.19-.81s2.51.67,2.89,1.97c-3.3,3.46-6.96,6.46-10.75,8.81-4.05,2.51-8.33,4.3-12.26,4.54-2.05.13-8.41.06-5.99-3.65,1.42-2.18,6.94-3.18,9.16-4.93Z" style="fill: #c1272d; stroke: #000; stroke-miterlimit: 10;"/>
      <path d="M125.89,445.97c2.67-.66,5.08-.45,7.38-.21.77.08,1.54.17,2.14.45s.99.79.83,1.45c-2.4.93-4.84,1.57-7.18,1.9-2.5.35-4.92.33-6.8-.32-.98-.34-3.89-1.6-1.84-2.81,1.21-.71,4-.1,5.47-.46Z" style="fill: #c1272d; stroke: #c1272d; stroke-miterlimit: 10;"/>
      <path d="M131.04,405.17c7.07-1.34,14.35-1.5,21.63-.48,5.29.74,11.24,2.66,14.39,8.66,2.44,4.64,2.49,10.75.9,15.49s-4.61,8.27-7.88,11.06c-6.86,5.82-15.2,8.81-23.74,8.5,6.53-13.16,4.19-31.2-5.3-43.22Z" style="fill: none; stroke: #000; stroke-miterlimit: 10;"/>
    </g>
    <g id="vinflaske">
      <path id="flaske" d="M311.9,463.82c-18.39-3.5-38.52-1.11-55.44,6.43-1.33-43.09-2.67-86.19-4-129.28-.32-10.34-.59-20.98,3.25-30.69s14.01-20.39,25.14-21.19c0-10.07,0-20.15,0-30.22,5.93,0,11.85-1.37,17.78-1.37,0,10.07,0,20.15,0,30.22,5.29-2.42,12.79,1.44,15.98,6.05,3.18,4.61,3.74,10.31,4.16,15.77,3.96,51.36-1.84,103.01-6.86,154.29Z" style="fill: #006837; opacity: .82; stroke: #000; stroke-miterlimit: 10;"/>
      <path d="M316.39,410.56c-20.28-.39-40.57-.78-60.85-1.17-1.83-20.79,1.01-41.62-3.01-62.15,22.33,1.98,44.96,1.08,67.02-2.69.32,6.18.78,12.41.54,18.59-.61,15.87-.94,31.74-3.71,47.41Z" style="fill: #fff6e9; stroke: #000; stroke-miterlimit: 10;"/>
      <path d="M267.71,391.71c.56-.29,1.15.34,1.37.9.41,1.04.58,2.16.49,3.26.03-1.59.81-3.16,2.1-4.21.22-.18.47-.35.76-.35.39,0,.71.31.81.66s.02.71-.09,1.06c-.28.9-.73,1.75-1.34,2.5,1.05-.69,2.18-1.41,3.46-1.5.24-.02.49,0,.7.09.21.1.38.28.49.47.45.75.27,1.78-.42,2.35s-1.81.63-2.56.13c1.17,1.5,1.84,3.33,1.9,5.18,0,.12,0,.26-.1.35-.08.08-.21.09-.33.08-.78-.02-1.49-.49-1.94-1.09s-.69-1.3-.9-2c-.14,1.2.83,2.58.02,3.53-.72.85-2.33.44-2.92-.49s-.48-2.09-.35-3.17c-.21.79-.44,1.62-1.05,2.2s-1.73.79-2.35.21c-.36-.34-.45-.85-.48-1.33-.06-.97.09-1.96.42-2.88.07-.21.17-.42.35-.55s.49-.14.63.03c-1.4.27-2.9.09-4.17-.52-.49-.23-1-.73-.74-1.17.18-.3.62-.36.99-.38,1.09-.04,3.62.51,4.51-.16.98-.73-.37-2.62.74-3.2Z" style="fill: #006837; stroke: #006837; stroke-miterlimit: 10;"/>
      <path d="M304.76,353.97c.13-.1.28-.19.45-.21.46-.04.74.46.85.88.33,1.2.47,2.44.43,3.67.57-2.11,2.55-3.83,4.86-4.22.18-.03.38-.05.52.05.12.08.16.23.19.36.42,1.78-.39,3.76-1.97,4.85,1.12-.41,2.39-.53,3.54-.19s2.14,1.21,2.42,2.3c.08.33.1.68,0,1-.32.92-1.53,1.28-2.57,1.23-1.35-.08-2.66-.66-3.57-1.58.57,1.15.94,2.38,1.1,3.64.12.97.02,2.12-.85,2.68-1.07.69-2.65-.06-3.18-1.16s-.33-2.37-.11-3.56c-.2,2.21-2.45,4.09-4.84,4.03-.23,0-.48-.03-.67-.15-.26-.16-.38-.45-.43-.73-.14-.89.4-1.77,1.15-2.33s1.67-.88,2.58-1.18c-1.66.5-3.63.96-5.01-.02-.62-.44-1.01-1.12-1.2-1.82-.04-.16-.07-.33,0-.48.07-.15.24-.25.41-.32,1.09-.5,2.19-.48,3.37-.44.97.03,1.44-.07,1.58-1.04.28-1.87-.98-3.76.98-5.25Z" style="fill: #006837; stroke: #006837; stroke-miterlimit: 10;"/>
      <path d="M291.8,352.2c.15-.63.7-1.24,1.49-1.35.17-.02.35-.02.51.03.4.14.52.54.57.89.13.83.21,1.66.24,2.5,1.74-.21,3.58.4,4.61,1.52.18.2.34.43.29.68-.08.35-.55.54-.97.65-.62.16-1.28.28-1.92.23s-1.28-.29-1.64-.72c.62.77,1.03,1.65,1.21,2.56.03.15.05.32-.02.46-.11.22-.4.34-.67.43-.62.19-1.3.28-1.96.26-.32-.01-.64-.05-.9-.2-.31-.18-.45-.49-.53-.79-.16-.59-.16-1.22,0-1.82-1.1.91-2.52,1.74-4.08,1.66-.43-.02-.92-.16-1.04-.49-.09-.24.04-.5.2-.72.79-1.08,2.38-1.76,3.92-1.68-.73-.14-1.25-.65-1.66-1.15-.28-.34-.55-.71-.63-1.12s.07-.88.49-1.13c.48-.3,1.19-.24,1.68.02.39.2.71.5.92.83-.13-.5-.23-1.02-.11-1.53Z" style="fill: #006837; stroke: #006837; stroke-miterlimit: 10;"/>
      <path d="M267.24,378.22c-3.83-2.59-5.55-7.26-5.33-11.65.05-1.09.22-2.19.7-3.18.56-1.16,1.53-2.11,2.61-2.88,1.5-1.06,3.35-1.82,5.24-1.66s3.72,1.43,3.99,3.17c.09.57,0,1.2-.42,1.63s-1.21.56-1.67.17c-.14-.12-.25-.28-.34-.44-1.26-2.19-.56-5.07,1.27-6.89,1.82-1.82,4.56-2.68,7.24-2.78" style="fill: none; stroke: #006837; stroke-miterlimit: 10;"/>
      <path d="M288.26,401.45c-.8.72-2.26.25-2.82-.64s-.49-2-.4-3.03c.05-.61.11-1.25.41-1.79.55-1,1.79-1.5,2.97-1.77,2.71-.62,5.63-.43,8.22.54,3.57,1.33,6.87,4.15,10.68,3.58,2.07-.31,3.87-1.68,4.75-3.45s.83-3.86.04-5.66c-.74-1.67-2.08-3.04-3.17-4.54s-1.97-3.29-1.61-5.07c.36-1.79,1.94-3.2,3.72-3.95s3.77-.96,5.72-1.16" style="fill: none; stroke: #006837; stroke-miterlimit: 10;"/>
      <path d="M263.52,381.54c.54,1.32,1.35,2.54,2.36,3.59.32-1.17.73-2.33,1.22-3.44.69,1.14,1.5,2.21,2.4,3.21.04-1.25.08-2.53.54-3.71" style="fill: none; stroke: #006837; stroke-miterlimit: 10;"/>
      <path d="M272.18,384.19c.36.01.72,0,1.08-.04.07,0,.14-.02.2-.06.08-.06.09-.18.09-.28-.02-.37-.16-.73-.39-1.03-.08-.1-.19-.21-.33-.21-.07,0-.14.03-.2.06-.37.19-.59.6-.54,1,.03.21.13.41.24.6.19.33.39.65.62.96.15.21.32.41.55.56.41.27,1,.28,1.43.03" style="fill: none; stroke: #006837; stroke-miterlimit: 10;"/>
      <path d="M276.7,382.17c.17,1.24.57,2.45,1.17,3.56.09.17.2.35.35.48s.39.2.58.13" style="fill: none; stroke: #006837; stroke-miterlimit: 10;"/>
      <path d="M276.21,380.91c-.13-.11-.21-.26-.23-.42,0-.03,0-.05,0-.07.02-.05.08-.07.13-.08.12-.03.26-.03.38.02s.21.15.22.27c0,.08-.04.16-.11.19s-.18-.02-.18-.1" style="fill: none; stroke: #006837; stroke-miterlimit: 10;"/>
      <path d="M281.25,387.21c-.16-1.71-.41-3.42-.73-5.11,1.59,1.75,3.18,3.49,4.77,5.24-.04-.57-.28-1.11-.53-1.63-.71-1.51-1.43-3.01-2.16-4.51" style="fill: none; stroke: #006837; stroke-miterlimit: 10;"/>
      <path d="M285.28,378.91l2.02,5.78c.33.93.68,1.9,1.43,2.58.07.06.15.13.25.14.1,0,.19-.04.26-.09.25-.16.46-.39.59-.64" style="fill: none; stroke: #006837; stroke-miterlimit: 10;"/>
      <path d="M292.33,382.49c-.38-.04-.75-.3-1.1-.18-.13.04-.23.13-.32.23-.36.39-.45.94-.35,1.45s.39.96.72,1.36c.11.13.26.27.43.23.1-.03.17-.11.22-.19.57-.83.66-1.93.23-2.83.36.57.55,1.22.84,1.82s.72,1.19,1.37,1.46" style="fill: none; stroke: #006837; stroke-miterlimit: 10;"/>
      <path d="M302.02,380.96c-.47-.23-1.08-.38-1.52-.1-.14.09-.25.21-.34.34-.29.44-.36,1-.19,1.49s.59.9,1.1,1.1c.11.04.24.08.35.05.18-.04.29-.2.37-.35.28-.52.39-1.11.41-1.69.05-1.2-1.7-5.82-2.33-6.87,1.06,1.9,3.55,7.22,4.61,9.12" style="fill: none; stroke: #006837; stroke-miterlimit: 10;"/>
      <path d="M295.04,381.32c.36,1.11.87,2.58,1.24,3.69-.12-.46-.23-.93-.26-1.4s.06-.96.31-1.38c.05-.09.14-.18.25-.16.05.01.57-.04.62-.03,1.33.14,1.31,1.52,1.46,2.46" style="fill: none; stroke: #006837; stroke-miterlimit: 10;"/>
    </g>
    <g id="kaffekop">
      <path d="M761.48,285.23c10.31-.2,19.03-6.89,18.98-15.08,0-.06,0-.12,0-.18h0c0-.44-.04-.87-.09-1.3-.85-7.28-8.36-12.86-17.5-13.71" style="fill: none; stroke: #3c0600; stroke-miterlimit: 10; stroke-width: 4px;"/>
      <path d="M717.3,248.8h0c-4.44,47.16,1.71,46.21,5.65,49.85h34.19c-.52.57,14.92-10.06,5.49-48.1l-.15-1.65c.01-.11.2-.72.12-.65h0c-1.02,2.28-5.85,3.8-12.01,4.59-4.75.61-10.28.77-15.47.51-4.34-.22-8.43-.74-11.62-1.56-3.02-.77-5.22-1.81-6.06-3.12h0c-.08-.03-.15.04-.14.12Z" style="fill: #fff9ea; stroke: #c7b299; stroke-miterlimit: 10;"/>
      <path d="M758.46,251.48l3.43-1.85c7.2-4.54-43.32-11.23-44.86.49h0l2.88,1.43c1.04.36,2.12.59,3.23.69l10.69,1.14h.76s4.52.1,4.52.1c.3-.02,3.3-.05,3.6-.05l4.84-.15c.42-.01.84-.05,1.26-.1l4.59-.6,5.07-1.1Z" style="fill: #fff9ea; stroke: #c7b299; stroke-miterlimit: 10;"/>
    </g>
    <g id="olieflaske">
      <path d="M720.99,413.15c-.77,3.11.65,6.35,2.63,9,1.99,2.64,4.55,4.91,6.49,7.58,6.23,8.56,5.23,19.66,4,29.83-1.7,14.02-2.64,28.07-4.33,42.08-6.01.04-11.92-1.24-17.89-1.86-5.97-.62-12.53-2.02-17.81.56-.42-2.36-.72-4.74-1.03-7.12-1.26-9.91-2.52-19.9-1.7-29.85s3.85-19.98,10.44-28.02c2.66-3.24,5.92-6.21,7.43-9.99,1.56-3.9,1.08-8.2.54-12.32,1.48,1.1,3.28,1.82,5.21,1.86s4.49-.69,6.02-1.74Z" style="fill: #ffe978; opacity: .79; stroke: #fcee21; stroke-miterlimit: 10;"/>
      <path d="M710.28,413.1c-.3-.34-.61-.69-.76-1.1s-.1-.91.25-1.22c.23-.21.57-.3.88-.37,3.52-.84,7.35-1.02,10.72.22.24.09.49.19.61.4.22.35-.07.79-.42,1.04s-.79.42-1.04.75" style="fill: none; stroke: #fcee21; stroke-miterlimit: 10;"/>
      <path d="M710.25,420.24c1.89.22,3.8.37,5.7.22s3.79-.62,5.39-1.56" style="fill: none; stroke: #fcee21; stroke-miterlimit: 10;"/>
      <path d="M711.14,409.95c3.36-.13,6.74-.25,10.08.09-.57.82-.95,1.75-1.09,2.7-2.22.15-4.45.25-6.68.28-.79.01-1.85.26-2.25-.36-.11-.18.09-2.72-.07-2.71Z" style="fill: #8c6239; stroke: #8c6239; stroke-miterlimit: 10;"/>
      <path d="M715.11,409.93c.35-3.37.51-6.75.5-10.13.3.45,1.2.37,1.4-.13-.22.95-.18,1.93-.15,2.9.09,2.41.18,4.83.26,7.24" style="fill: #b3b3b3; stroke: #b3b3b3; stroke-miterlimit: 10;"/>
    </g>
    <g id="oliven">
      <path d="M790.96,474.51c3.53,2.57,7.98,4.54,12.86,5.7,3.16.75,6.63,1.16,9.84.53,3.55-.7,6.34-2.6,8.28-4.73,9.34-10.28-.98-25.58-19.56-26.13-19.02-.56-21.81,17.07-11.42,24.63Z" style="fill: #fceebe; opacity: .77; stroke: #f2f2f2; stroke-miterlimit: 10; stroke-width: 4px;"/>
      <path d="M814.05,462.07c-2.04-1.31-4.73-1.59-7.01-.73-.36.13-.71.3-.96.59s-.35.71-.16,1.03c.59,1,.77,2.5,1.89,2.9s2.34.36,3.53.28c1.31-.09,2.8-.34,3.46-1.44.64-1.07.31-1.95-.75-2.64Z" style="fill: #006837; stroke: #006837; stroke-miterlimit: 10;"/>
      <path d="M807.31,463.07c.11.15.16.33.19.52.02.12.04.25,0,.36s-.14.22-.26.22c-.17,0-.27-.2-.31-.36-.04-.16-.21-.71-.1-.86.12-.16.39-.02.49.12Z" style="fill: none; opacity: .48; stroke: #333; stroke-miterlimit: 10;"/>
      <path d="M800.29,458.14c1.7-1.25,1.73-2.66,5.39-2.96.99,1.07.42,1.53-.61,2.59-.67.69-1.73,1.27-2.22,2-.53.79-.32,1.64-.52,2.47-.27,1.11-1.3,2.14-2.3,3.15-4.23-.24-2.52-4.91.26-7.24Z" style="fill: #006837; opacity: .72; stroke: #006837; stroke-miterlimit: 10;"/>
      <path d="M809.46,447.21c4-.96,7.4-3.28,12.15-2.57-1.63,1.52-3.33,3.08-6.01,4.15-2.03.81-4.49,1.27-6.72,1.93-1.92.57-3.65,1.28-5.58,1.83-.63.18-1.48.56-1.99.18-.41-.31.19-.96.4-1.24,1.41-1.85,4.22-3.43,7.75-4.28Z" style="fill: #006837; opacity: .72; stroke: #006837; stroke-miterlimit: 10;"/>
      <path d="M812.37,453.67c1.41-.55,3.05-.97,4.79-1.14,2.61-.25,2.1-.73,4.22-1.56.59.7,0,1.55-1.03,2.11s-2.44.88-3.81,1.19-2.79.62-3.86,1.15c-.67.34-1.28.81-2.26.91-.26-1.06.19-1.97,1.94-2.65Z" style="fill: #006837; opacity: .72; stroke: #006837; stroke-miterlimit: 10;"/>
      <path d="M819.72,456.81c1.66-.64,2.94-1.5,4.19-2.34,2.01.98-.1,1.75-1.37,2.29-.33.14-.7.25-1.01.4-1.01.47-1.36,1.2-2.14,1.77-.88.64-2.88.6-2.59-.33.24-.75,1.84-1.36,2.92-1.78Z" style="fill: #006837; opacity: .72; stroke: #006837; stroke-miterlimit: 10;"/>
      <path d="M825.29,460.46c2.37-.39,1.89.01,2.55-.05.79-.08-3.34.13-2.55.05,1.09-.12,3.34-1.34,4.94-1.49.15.39.31.78.19,1.17s-.54.78-1.25.93c-.33.07-.69.09-1.05.11-.49.03-.97.08-1.44.15-.47.06-.93.15-1.34.27-.71.22-1.35.57-2.17.55.18-.56.94-1.5,2.12-1.7Z" style="fill: #006837; opacity: .72; stroke: #006837; stroke-miterlimit: 10; stroke-width: .5px;"/>
      <path d="M813.43,461.07c-.32.14-.47.37-.56.58-.21.51-.19,1.04-.42,1.55-.38.86-1.44,1.6-2.47,2.3.55,0,1.11,0,1.66,0,.45,0,.92,0,1.34-.07.9-.16,1.46-.63,1.68-1.1s.15-.97.21-1.45c.03-.2.08-.41.22-.6.14-.18.37-.35.5-.53.17-.25.25-.73-.33-.84-.51-.1-1.45-.02-1.85.16Z" style="fill: #006837; opacity: .72; stroke: #006837; stroke-miterlimit: 10;"/>
      <path d="M827.25,463.1c1.3.13-7.6-.7-10.23-2.15s-4.48-3.23-7.13-4.66c-3.88-2.1-16.82-5.06-14.36-4.5" style="fill: #534741; stroke: #534741; stroke-miterlimit: 10;"/>
      <path d="M797.43,454.44c2.32-1.38,5.56-1.18,7.52.69,1.01.97,1.66,2.46,1.23,3.8-.34,1.07-1.31,1.85-2.36,2.24s-2.19.45-3.32.48c-.44.01-.89.02-1.3-.13-.48-.17-.85-.54-1.21-.9-1.94-1.93-3.64-4.35-.56-6.18Z" style="fill: #006837; stroke: #006837; stroke-miterlimit: 10;"/>
      <path d="M805.05,458.65c.09-.14.21-.28.37-.34s.37.02.41.19c.01.07,0,.14-.02.21-.08.28-.16.57-.32.82-.14.21-.7.75-.89.37-.16-.3.32-1.03.46-1.25Z" style="fill: none; opacity: .34; stroke: #333; stroke-miterlimit: 10;"/>
    </g>
  </g>
</svg>